# Blender v2.90.1 OBJ File: 'MakeupPitStop.blend'
# www.blender.org
mtllib Lipstick.mtl
v 3.197768 1.405879 -0.552875
v 3.197768 2.026471 -0.495693
v 3.378843 1.405879 -0.494040
v 3.345232 2.026471 -0.447779
v 3.490753 1.405879 -0.340009
v 3.436370 2.026471 -0.322339
v 3.490753 1.405879 -0.149616
v 3.436370 2.026471 -0.167286
v 3.378843 1.405879 0.004415
v 3.345232 2.026471 -0.041846
v 3.197768 1.405879 0.063250
v 3.197768 2.026471 0.006068
v 3.016694 1.405879 0.004415
v 3.050304 2.026471 -0.041846
v 2.904783 1.405879 -0.149616
v 2.959167 2.026471 -0.167286
v 2.904783 1.405879 -0.340009
v 2.959167 2.026471 -0.322339
v 3.016694 1.405879 -0.494040
v 3.050304 2.026471 -0.447779
v 3.378843 2.026471 -0.494040
v 3.197768 2.026471 -0.552875
v 3.490753 2.026471 -0.340009
v 3.490753 2.026471 -0.149616
v 3.378843 2.026471 0.004415
v 3.197768 2.026471 0.063250
v 3.016694 2.026471 0.004415
v 2.904783 2.026471 -0.149616
v 2.904783 2.026471 -0.340009
v 3.016694 2.026471 -0.494040
v 3.312969 2.303786 -0.403372
v 3.197768 2.303786 -0.440803
v 3.384167 2.303786 -0.305377
v 3.384167 2.303786 -0.184248
v 3.312969 2.303786 -0.086253
v 3.197768 2.303786 -0.048822
v 3.082568 2.303786 -0.086253
v 3.011371 2.303786 -0.184248
v 3.011371 2.303786 -0.305377
v 3.082568 2.303786 -0.403372
v 3.335376 2.303786 -0.434212
v 3.197768 2.303786 -0.478923
v 3.420421 2.303786 -0.317157
v 3.420421 2.303786 -0.172468
v 3.335376 2.303786 -0.055413
v 3.197768 2.303786 -0.010701
v 3.060162 2.303786 -0.055413
v 2.975116 2.303786 -0.172468
v 2.975116 2.303786 -0.317157
v 3.060162 2.303786 -0.434212
v 3.318159 1.951522 -0.410514
v 3.197770 1.951522 -0.449630
v 3.392563 1.951522 -0.308105
v 3.392563 1.951522 -0.181521
v 3.318159 1.951522 -0.079112
v 3.197770 1.951522 -0.039995
v 3.077381 1.951522 -0.079112
v 3.002977 1.951522 -0.181520
v 3.002977 1.951522 -0.308105
v 3.077381 1.951522 -0.410514
v 3.327431 1.951522 -0.423275
v 3.197770 1.951522 -0.465405
v 3.407565 1.951522 -0.312979
v 3.407565 1.951522 -0.176646
v 3.327431 1.951522 -0.066350
v 3.197770 1.951522 -0.024221
v 3.068109 1.951522 -0.066350
v 2.987974 1.951522 -0.176646
v 2.987974 1.951522 -0.312979
v 3.068109 1.951522 -0.423275
v 3.303218 2.819153 -0.371838
v 3.197774 2.835724 -0.401825
v 3.368386 2.775770 -0.293332
v 3.368386 2.722145 -0.196292
v 3.303218 2.678761 -0.117786
v 3.197774 2.662190 -0.087799
v 3.092330 2.678761 -0.117786
v 3.027162 2.722145 -0.196292
v 3.027162 2.775770 -0.293332
v 3.092330 2.819153 -0.371838
vt 0.300609 0.814281
vt 0.310080 0.861638
vt 0.300609 0.861638
vt 0.310080 0.814281
vt 0.319551 0.861638
vt 0.319551 0.814281
vt 0.329023 0.861638
vt 0.329023 0.814281
vt 0.338494 0.861638
vt 0.338494 0.814281
vt 0.347966 0.861638
vt 0.347966 0.814281
vt 0.357437 0.861638
vt 0.357437 0.814281
vt 0.366909 0.861638
vt 0.366909 0.814281
vt 0.376380 0.861638
vt 0.147910 0.869578
vt 0.147910 0.890696
vt 0.147910 0.890696
vt 0.376380 0.814281
vt 0.385851 0.861638
vt 0.385851 0.814281
vt 0.395323 0.861638
vt 0.345906 0.878292
vt 0.337648 0.866926
vt 0.302668 0.892341
vt 0.360763 0.870340
vt 0.371644 0.862585
vt 0.371644 0.866804
vt 0.354038 0.879596
vt 0.358283 0.866926
vt 0.354038 0.891037
vt 0.350025 0.878292
vt 0.358283 0.903707
vt 0.350025 0.892341
vt 0.360763 0.900293
vt 0.371644 0.908048
vt 0.371644 0.903829
vt 0.385005 0.903707
vt 0.382525 0.900293
vt 0.393263 0.892341
vt 0.389250 0.879596
vt 0.389250 0.891037
vt 0.385005 0.866926
vt 0.393263 0.878292
vt 0.382525 0.870340
vt 0.405618 0.300563
vt 0.405618 0.199437
vt 0.405618 0.199437
vt 0.200491 0.852493
vt 0.180407 0.845967
vt 0.180407 0.845967
vt 0.212904 0.890696
vt 0.200491 0.907781
vt 0.212904 0.890696
vt 0.160322 0.907781
vt 0.160322 0.907781
vt 0.160322 0.852493
vt 0.160322 0.852493
vt 0.212904 0.869578
vt 0.212904 0.869578
vt 0.180407 0.914307
vt 0.180407 0.914307
vt 0.147910 0.869578
vt 0.200491 0.852493
vt 0.200491 0.907781
vt 0.197221 0.903280
vt 0.180407 0.908743
vt 0.207613 0.888977
vt 0.207613 0.871297
vt 0.197221 0.856994
vt 0.163593 0.856994
vt 0.180407 0.851531
vt 0.153201 0.871297
vt 0.153201 0.888977
vt 0.163593 0.903280
vt 0.363676 0.327101
vt 0.358698 0.320249
vt 0.358698 0.320249
vt 0.250000 0.413626
vt 0.153823 0.382376
vt 0.250000 0.413626
vt 0.153823 0.117624
vt 0.094382 0.199437
vt 0.094382 0.199437
vt 0.346177 0.117624
vt 0.346177 0.117624
vt 0.346177 0.382376
vt 0.346177 0.382376
vt 0.094382 0.300563
vt 0.094382 0.300563
vt 0.250000 0.086374
vt 0.250000 0.086374
vt 0.405618 0.300563
vt 0.153823 0.382376
vt 0.153823 0.117624
vt 0.339300 0.372910
vt 0.250000 0.401926
vt 0.394490 0.296948
vt 0.394490 0.203052
vt 0.339299 0.127090
vt 0.250000 0.098075
vt 0.160700 0.127090
vt 0.105510 0.203052
vt 0.105510 0.296948
vt 0.160700 0.372910
vt 0.363676 0.327101
vt 0.363676 0.335571
vt 0.337609 0.335571
vt 0.350642 0.345040
vt 0.358698 0.342423
vt 0.358698 0.342423
vt 0.337609 0.335571
vt 0.337609 0.327101
vt 0.350642 0.317631
vt 0.350642 0.317631
vt 0.363676 0.335571
vt 0.342587 0.342423
vt 0.342587 0.342423
vt 0.342587 0.320249
vt 0.342587 0.320249
vt 0.350642 0.345040
vt 0.337609 0.327101
vt 0.395323 0.814281
vt 0.324287 0.862585
vt 0.310926 0.866926
vt 0.302668 0.878292
vt 0.310926 0.903707
vt 0.324287 0.908048
vt 0.337648 0.903707
vt 0.345906 0.892341
vn 0.3090 0.0000 -0.9511
vn 0.8090 0.0000 -0.5878
vn 1.0000 0.0000 0.0000
vn 0.8090 0.0000 0.5878
vn 0.3090 0.0000 0.9511
vn -0.3090 0.0000 0.9511
vn -0.8090 0.0000 0.5878
vn -1.0000 0.0000 0.0000
vn -0.9984 0.0574 0.0000
vn -0.8090 0.0000 -0.5878
vn -0.3090 0.0000 -0.9511
vn 0.0000 -1.0000 0.0000
vn 0.0000 1.0000 0.0000
vn -0.9978 -0.0663 0.0000
vn 0.3085 0.0574 0.9495
vn 0.8077 0.0574 -0.5868
vn -0.8077 0.0574 -0.5868
vn -0.3085 0.0574 0.9495
vn 0.9984 0.0574 0.0000
vn -0.3085 0.0574 -0.9495
vn -0.8077 0.0574 0.5868
vn 0.8077 0.0574 0.5868
vn 0.3085 0.0574 -0.9495
vn 0.8081 0.0478 0.5871
vn 0.3083 -0.0663 0.9490
vn 0.8072 -0.0663 -0.5865
vn -0.8072 -0.0663 -0.5865
vn -0.3083 -0.0663 0.9490
vn 0.9978 -0.0663 0.0000
vn -0.3083 -0.0663 -0.9490
vn -0.8072 -0.0663 0.5865
vn 0.8072 -0.0663 0.5865
vn 0.3083 -0.0663 -0.9490
vn -0.0000 0.8752 0.4837
vn 0.3087 0.0477 -0.9500
vn -0.9994 0.0290 0.0160
vn 0.3084 0.0638 0.9491
vn 0.8085 0.0342 -0.5874
vn -0.7799 0.0413 -0.6246
vn -0.2649 0.0566 0.9626
vn 0.9995 0.0314 0.0000
vn -0.2807 0.0518 -0.9584
vn -0.7590 0.0363 0.6501
vn 0.7590 0.0363 0.6501
vn -0.0000 0.8753 0.4837
vn 0.2807 0.0518 -0.9584
vn -0.9995 0.0314 0.0000
vn 0.2649 0.0566 0.9626
vn 0.7799 0.0413 -0.6246
vn -0.8085 0.0343 -0.5874
vn -0.3084 0.0638 0.9491
vn 0.9994 0.0290 0.0160
vn -0.3087 0.0477 -0.9500
vn -0.8081 0.0478 0.5871
usemtl PitStop
s off
f 22/1/1 3/2/1 1/3/1
f 21/4/2 5/5/2 3/2/2
f 23/6/3 7/7/3 5/5/3
f 24/8/4 9/9/4 7/7/4
f 25/10/5 11/11/5 9/9/5
f 26/12/6 13/13/6 11/11/6
f 27/14/7 15/15/7 13/13/7
f 28/16/8 17/17/8 15/15/8
f 16/18/9 49/19/9 18/20/9
f 29/21/10 19/22/10 17/17/10
f 30/23/11 1/24/11 19/22/11
f 17/25/12 19/26/12 7/27/12
f 4/28/13 22/29/13 2/30/13
f 6/31/13 21/32/13 4/28/13
f 8/33/13 23/34/13 6/31/13
f 8/33/13 25/35/13 24/36/13
f 10/37/13 26/38/13 25/35/13
f 12/39/13 27/40/13 26/38/13
f 14/41/13 28/42/13 27/40/13
f 18/43/13 28/42/13 16/44/13
f 18/43/13 30/45/13 29/46/13
f 20/47/13 22/29/13 30/45/13
f 33/48/14 64/49/14 34/50/14
f 10/51/15 46/52/15 12/53/15
f 6/54/16 41/55/16 43/56/16
f 20/57/17 49/19/17 50/58/17
f 12/53/18 47/59/18 14/60/18
f 8/61/19 43/56/19 44/62/19
f 2/63/20 50/58/20 42/64/20
f 14/60/21 48/65/21 16/18/21
f 8/61/22 45/66/22 10/51/22
f 4/67/23 42/64/23 41/55/23
f 31/68/13 42/64/13 32/69/13
f 33/70/13 41/55/13 31/68/13
f 34/71/13 43/56/13 33/70/13
f 34/71/13 45/66/13 44/62/13
f 35/72/13 46/52/13 45/66/13
f 37/73/13 46/52/13 36/74/13
f 38/75/13 47/59/13 37/73/13
f 39/76/13 48/65/13 38/75/13
f 40/77/13 49/19/13 39/76/13
f 32/69/13 50/58/13 40/77/13
f 54/78/24 75/79/24 55/80/24
f 32/81/25 70/82/25 62/83/25
f 37/84/26 68/85/26 38/86/26
f 34/50/27 65/87/27 35/88/27
f 31/89/28 62/83/28 61/90/28
f 39/91/29 68/85/29 69/92/29
f 35/88/30 66/93/30 36/94/30
f 33/48/31 61/90/31 63/95/31
f 40/96/32 69/92/32 70/82/32
f 36/94/33 67/97/33 37/84/33
f 51/98/13 62/83/13 52/99/13
f 53/100/13 61/90/13 51/98/13
f 54/101/13 63/95/13 53/100/13
f 54/101/13 65/87/13 64/49/13
f 55/102/13 66/93/13 65/87/13
f 56/103/13 67/97/13 66/93/13
f 57/104/13 68/85/13 67/97/13
f 58/105/13 69/92/13 68/85/13
f 59/106/13 70/82/13 69/92/13
f 60/107/13 62/83/13 70/82/13
f 74/108/34 73/109/34 79/110/34
f 52/111/35 71/112/35 51/113/35
f 59/114/36 78/115/36 79/110/36
f 55/80/37 76/116/37 56/117/37
f 51/113/38 73/109/38 53/118/38
f 60/119/39 79/110/39 80/120/39
f 57/121/40 76/116/40 77/122/40
f 53/118/41 74/108/41 54/78/41
f 52/111/42 80/120/42 72/123/42
f 58/124/43 77/122/43 78/115/43
f 22/1/1 21/4/1 3/2/1
f 21/4/2 23/6/2 5/5/2
f 23/6/3 24/8/3 7/7/3
f 24/8/4 25/10/4 9/9/4
f 25/10/5 26/12/5 11/11/5
f 26/12/6 27/14/6 13/13/6
f 27/14/7 28/16/7 15/15/7
f 28/16/8 29/21/8 17/17/8
f 16/18/9 48/65/9 49/19/9
f 29/21/10 30/23/10 19/22/10
f 30/23/11 22/125/11 1/24/11
f 19/26/12 1/126/12 3/127/12
f 3/127/12 5/128/12 19/26/12
f 5/128/12 7/27/12 19/26/12
f 7/27/12 9/129/12 11/130/12
f 11/130/12 13/131/12 7/27/12
f 13/131/12 15/132/12 7/27/12
f 15/132/12 17/25/12 7/27/12
f 4/28/13 21/32/13 22/29/13
f 6/31/13 23/34/13 21/32/13
f 8/33/13 24/36/13 23/34/13
f 8/33/13 10/37/13 25/35/13
f 10/37/13 12/39/13 26/38/13
f 12/39/13 14/41/13 27/40/13
f 14/41/13 16/44/13 28/42/13
f 18/43/13 29/46/13 28/42/13
f 18/43/13 20/47/13 30/45/13
f 20/47/13 2/30/13 22/29/13
f 33/48/14 63/95/14 64/49/14
f 10/51/15 45/66/15 46/52/15
f 6/54/16 4/67/16 41/55/16
f 20/57/17 18/20/17 49/19/17
f 12/53/18 46/52/18 47/59/18
f 8/61/19 6/54/19 43/56/19
f 2/63/20 20/57/20 50/58/20
f 14/60/21 47/59/21 48/65/21
f 8/61/22 44/62/22 45/66/22
f 4/67/23 2/63/23 42/64/23
f 31/68/13 41/55/13 42/64/13
f 33/70/13 43/56/13 41/55/13
f 34/71/13 44/62/13 43/56/13
f 34/71/13 35/72/13 45/66/13
f 35/72/13 36/74/13 46/52/13
f 37/73/13 47/59/13 46/52/13
f 38/75/13 48/65/13 47/59/13
f 39/76/13 49/19/13 48/65/13
f 40/77/13 50/58/13 49/19/13
f 32/69/13 42/64/13 50/58/13
f 54/78/44 74/108/44 75/79/44
f 32/81/25 40/96/25 70/82/25
f 37/84/26 67/97/26 68/85/26
f 34/50/27 64/49/27 65/87/27
f 31/89/28 32/81/28 62/83/28
f 39/91/29 38/86/29 68/85/29
f 35/88/30 65/87/30 66/93/30
f 33/48/31 31/89/31 61/90/31
f 40/96/32 39/91/32 69/92/32
f 36/94/33 66/93/33 67/97/33
f 51/98/13 61/90/13 62/83/13
f 53/100/13 63/95/13 61/90/13
f 54/101/13 64/49/13 63/95/13
f 54/101/13 55/102/13 65/87/13
f 55/102/13 56/103/13 66/93/13
f 56/103/13 57/104/13 67/97/13
f 57/104/13 58/105/13 68/85/13
f 58/105/13 59/106/13 69/92/13
f 59/106/13 60/107/13 70/82/13
f 60/107/13 52/99/13 62/83/13
f 73/109/45 71/112/45 79/110/45
f 71/112/45 72/123/45 79/110/45
f 72/123/34 80/120/34 79/110/34
f 79/110/34 78/115/34 75/79/34
f 78/115/45 77/122/45 75/79/45
f 77/122/34 76/116/34 75/79/34
f 75/79/45 74/108/45 79/110/45
f 52/111/46 72/123/46 71/112/46
f 59/114/47 58/124/47 78/115/47
f 55/80/48 75/79/48 76/116/48
f 51/113/49 71/112/49 73/109/49
f 60/119/50 59/114/50 79/110/50
f 57/121/51 56/117/51 76/116/51
f 53/118/52 73/109/52 74/108/52
f 52/111/53 60/119/53 80/120/53
f 58/124/54 57/121/54 77/122/54
