# Blender v2.90.1 OBJ File: 'MakeupPitStop.blend'
# www.blender.org
mtllib MakeupPitStop(Bar).mtl
o Cube.104_Cube.112
v -3.124838 0.073960 -3.116420
v -3.160367 0.648135 -3.090069
v -3.124496 0.072849 -3.192842
v -3.159713 0.646009 -3.236200
v 4.203974 0.080911 -3.083760
v 4.238162 0.655152 -3.057098
v 4.204316 0.079799 -3.160182
v 4.238815 0.653026 -3.203230
v -3.159207 0.072309 -3.227852
v -3.159860 0.074434 -3.081721
v 4.239322 0.079325 -3.194882
v 4.238669 0.081451 -3.048750
v -3.124441 0.010276 -3.191932
v -3.124783 0.011388 -3.115509
v 4.204371 0.017226 -3.159272
v 4.204030 0.018338 -3.082850
vt 0.343438 0.826699
vt 0.381231 0.864493
vt 0.343438 0.864493
vt 0.002778 0.071747
vt 0.992330 0.193561
vt 0.002778 0.193561
vt 0.381231 0.902287
vt 0.343438 0.940080
vt 0.343438 0.902287
vt 0.004825 0.071747
vt 0.994380 0.193561
vt 0.004825 0.193561
vt 0.343260 0.911301
vt 0.343260 0.931066
vt 0.343260 0.911301
vt 0.419025 0.902287
vt 0.381231 0.940080
vt 0.305822 0.931066
vt 0.305644 0.902287
vt 0.305822 0.911301
vt 0.343260 0.931066
vt 0.305644 0.940080
vt 0.305822 0.931066
vt 0.305822 0.911301
vt 0.381231 0.826699
vt 0.992330 0.071747
vt 0.994380 0.071747
vt 0.419025 0.940080
vn -1.0000 -0.0009 -0.0045
vn 0.0045 -0.0145 -0.9999
vn 1.0000 0.0009 0.0045
vn -0.0045 0.0145 0.9999
vn -0.0009 0.9999 -0.0145
vn 0.0009 -0.9999 0.0145
vn 1.0000 0.0010 0.0045
usemtl PitStop
s off
f 10/1/1 4/2/1 9/3/1
f 4/4/2 11/5/2 9/6/2
f 8/7/3 12/8/3 11/9/3
f 6/10/4 10/11/4 12/12/4
f 7/13/3 16/14/3 15/15/3
f 4/16/5 6/17/5 8/7/5
f 1/18/6 9/19/6 3/20/6
f 3/20/6 11/9/6 7/13/6
f 7/13/6 12/8/6 5/21/6
f 1/18/6 12/8/6 10/22/6
f 15/15/6 14/23/6 13/24/6
f 3/20/1 14/23/1 1/18/1
f 1/18/4 16/14/4 5/21/4
f 7/13/2 13/24/2 3/20/2
f 10/1/1 2/25/1 4/2/1
f 4/4/2 8/26/2 11/5/2
f 8/7/3 6/17/3 12/8/3
f 6/10/4 2/27/4 10/11/4
f 7/13/7 5/21/7 16/14/7
f 4/16/5 2/28/5 6/17/5
f 1/18/6 10/22/6 9/19/6
f 3/20/6 9/19/6 11/9/6
f 7/13/6 11/9/6 12/8/6
f 1/18/6 5/21/6 12/8/6
f 15/15/6 16/14/6 14/23/6
f 3/20/1 13/24/1 14/23/1
f 1/18/4 14/23/4 16/14/4
f 7/13/2 15/15/2 13/24/2
