# Blender v2.90.1 OBJ File: 'MakeupPitStop.blend'
# www.blender.org
mtllib PowderThing.mtl
v 3.129239 1.397575 0.580571
v 3.129239 1.729412 0.580571
v 3.304207 1.397575 0.637422
v 3.304207 1.729412 0.637422
v 3.412344 1.397575 0.786259
v 3.412344 1.729412 0.786259
v 3.412344 1.397575 0.970231
v 3.412344 1.729412 0.970231
v 3.304207 1.397575 1.119069
v 3.304207 1.729412 1.119069
v 3.129239 1.397575 1.175919
v 3.129239 1.729412 1.175919
v 2.954270 1.397575 1.119069
v 2.954270 1.729412 1.119069
v 2.846134 1.397575 0.970232
v 2.846134 1.729412 0.970232
v 2.846134 1.397575 0.786259
v 2.846134 1.729412 0.786259
v 2.954270 1.397575 0.637421
v 2.954270 1.729412 0.637421
v 3.428717 2.291971 0.466048
v 3.458913 2.211554 0.424487
v 3.129239 2.211554 0.317369
v 3.129239 2.291971 0.368742
v 3.613805 2.291971 0.720800
v 3.662664 2.211554 0.704925
v 3.613805 2.291971 1.035690
v 3.662664 2.211554 1.051565
v 3.428717 2.291971 1.290442
v 3.458913 2.211554 1.332003
v 3.129239 2.291971 1.387748
v 3.129239 2.211554 1.439121
v 2.829760 2.291971 1.290442
v 2.799564 2.211554 1.332003
v 2.644672 2.291971 1.035690
v 2.595814 2.211554 1.051565
v 2.644672 2.291971 0.720800
v 2.595814 2.211554 0.704925
v 2.829760 2.291971 0.466048
v 2.799564 2.211554 0.424487
v 3.129239 1.660236 0.580571
v 3.304207 1.660236 0.637422
v 3.412344 1.660236 0.786259
v 3.412344 1.660236 0.970231
v 3.304207 1.660236 1.119069
v 3.129239 1.660236 1.175919
v 2.954270 1.660236 1.119069
v 2.846134 1.660236 0.970232
v 2.846134 1.660236 0.786259
v 2.954270 1.660236 0.637421
v 3.334902 1.729412 0.595174
v 3.129239 1.729412 0.528350
v 3.129239 1.660236 0.528350
v 3.462008 1.729412 0.770122
v 3.462008 1.729412 0.986369
v 3.334902 1.729412 1.161316
v 3.129239 1.729412 1.228140
v 2.923576 1.729412 1.161316
v 2.796469 1.729412 0.986369
v 2.796469 1.729412 0.770122
v 2.923576 1.729412 0.595174
v 3.334902 1.660236 0.595174
v 3.462008 1.660236 0.770122
v 3.462008 1.660236 0.986369
v 3.334902 1.660236 1.161316
v 3.129239 1.660236 1.228140
v 2.923576 1.660236 1.161316
v 2.796469 1.660236 0.986369
v 2.796469 1.660236 0.770122
v 2.923576 1.660236 0.595174
vt 0.413396 0.931875
vt 0.402392 0.931875
vt 0.402392 0.931875
vt 0.325362 0.931875
vt 0.314358 0.931875
vt 0.314358 0.931875
vt 0.391387 0.931875
vt 0.391387 0.931875
vt 0.347371 0.943345
vt 0.358375 0.943345
vt 0.358375 0.943345
vt 0.413396 0.943345
vt 0.402392 0.943345
vt 0.413396 0.943345
vt 0.380383 0.931875
vt 0.380383 0.931875
vt 0.325362 0.943345
vt 0.336366 0.943345
vt 0.336366 0.943345
vt 0.380383 0.943345
vt 0.391387 0.943345
vt 0.391387 0.943345
vt 0.845043 0.901650
vt 0.841050 0.901650
vt 0.841050 0.901650
vt 0.369379 0.931875
vt 0.369379 0.931875
vt 0.358375 0.931875
vt 0.358375 0.931875
vt 0.174890 0.901861
vt 0.179985 0.886179
vt 0.153305 0.886179
vt 0.861017 0.901650
vt 0.865010 0.901650
vt 0.861017 0.901650
vt 0.849036 0.901650
vt 0.845043 0.901650
vt 0.853030 0.901650
vt 0.849036 0.901650
vt 0.831374 0.874194
vt 0.843799 0.865167
vt 0.846732 0.874194
vt 0.857023 0.901650
vt 0.853030 0.901650
vt 0.833063 0.901650
vt 0.829069 0.901650
vt 0.829069 0.901650
vt 0.857023 0.901650
vt 0.837056 0.901650
vt 0.833063 0.901650
vt 0.837056 0.901650
vt 0.868689 0.901650
vt 0.865325 0.901650
vt 0.864696 0.901650
vt 0.861331 0.901650
vt 0.857338 0.901650
vt 0.856709 0.901650
vt 0.853344 0.901650
vt 0.852715 0.901650
vt 0.849351 0.901650
vt 0.845358 0.901650
vt 0.841364 0.901650
vt 0.837371 0.901650
vt 0.836742 0.901650
vt 0.833377 0.901650
vt 0.832748 0.901650
vt 0.829384 0.901650
vt 0.869004 0.901650
vt 0.865010 0.901650
vt 0.128657 0.928254
vt 0.122812 0.905124
vt 0.128657 0.905124
vt 0.134501 0.928254
vt 0.134501 0.905124
vt 0.140345 0.928254
vt 0.140345 0.905124
vt 0.146190 0.928254
vt 0.146190 0.905124
vt 0.152034 0.928254
vt 0.152034 0.905124
vt 0.157879 0.928254
vt 0.157879 0.905124
vt 0.163723 0.928254
vt 0.163723 0.905124
vt 0.169567 0.928254
vt 0.169567 0.905124
vt 0.175412 0.928254
vt 0.175412 0.905124
vt 0.181256 0.928254
vt 0.181256 0.905124
vt 0.424400 0.943345
vt 0.413396 0.931875
vt 0.424400 0.931875
vt 0.380383 0.943345
vt 0.369379 0.943345
vt 0.347371 0.931875
vt 0.347371 0.943345
vt 0.336366 0.931875
vt 0.325362 0.931875
vt 0.325362 0.943345
vt 0.369379 0.943345
vt 0.314358 0.943345
vt 0.424400 0.931875
vt 0.402392 0.943345
vt 0.336366 0.931875
vt 0.424400 0.943345
vt 0.347371 0.931875
vt 0.158401 0.901861
vt 0.166645 0.904540
vt 0.179985 0.894848
vt 0.174890 0.879166
vt 0.166645 0.876487
vt 0.158401 0.879166
vt 0.153305 0.894848
vt 0.843799 0.878231
vt 0.839053 0.879773
vt 0.834307 0.878231
vt 0.831374 0.869204
vt 0.834307 0.865167
vt 0.839053 0.863625
vt 0.846732 0.869204
vt 0.869004 0.901650
vt 0.860702 0.901650
vt 0.848722 0.901650
vt 0.844728 0.901650
vt 0.840735 0.901650
vt 0.122812 0.928254
vt 0.314358 0.943345
vn 0.0000 -1.0000 0.0000
vn 0.0000 1.0000 0.0000
vn -0.7180 -0.4608 0.5217
vn 0.7180 -0.4608 -0.5217
vn -0.2743 -0.4608 0.8441
vn 0.2743 -0.4608 0.8441
vn 0.7180 -0.4608 0.5217
vn -0.2743 -0.4608 -0.8441
vn 0.8875 -0.4608 0.0000
vn -0.7180 -0.4608 -0.5217
vn -0.8875 -0.4608 0.0000
vn 0.2641 0.5192 -0.8128
vn 0.6914 0.5192 -0.5023
vn 0.8546 0.5192 0.0000
vn 0.6914 0.5192 0.5023
vn 0.2641 0.5192 0.8128
vn -0.2641 0.5192 0.8128
vn -0.6914 0.5192 0.5023
vn -0.8546 0.5192 0.0000
vn -0.6914 0.5192 -0.5023
vn -0.2641 0.5192 -0.8128
vn 0.2743 -0.4608 -0.8441
vn -0.3090 0.0000 -0.9511
vn -0.8090 0.0000 -0.5878
vn -1.0000 0.0000 0.0000
vn -0.8090 0.0000 0.5878
vn -0.3090 0.0000 0.9511
vn 0.3090 0.0000 0.9511
vn 0.8090 0.0000 0.5878
vn 1.0000 0.0000 0.0000
vn 0.8090 0.0000 -0.5878
vn 0.3090 0.0000 -0.9511
usemtl PitStop
s off
f 42/1/1 63/2/1 43/3/1
f 50/4/1 53/5/1 41/6/1
f 44/7/1 63/2/1 64/8/1
f 16/9/2 58/10/2 14/11/2
f 4/12/2 54/13/2 51/14/2
f 45/15/1 64/8/1 65/16/1
f 20/17/2 60/18/2 18/19/2
f 10/20/2 55/21/2 8/22/2
f 14/23/3 36/24/3 16/25/3
f 46/26/1 65/16/1 66/27/1
f 46/26/1 67/28/1 47/29/1
f 3/30/1 7/31/1 15/32/1
f 6/33/4 22/34/4 26/35/4
f 12/36/5 34/37/5 14/23/5
f 10/38/6 32/39/6 12/36/6
f 37/40/2 29/41/2 25/42/2
f 8/43/7 30/44/7 10/38/7
f 20/45/8 23/46/8 2/47/8
f 6/33/9 28/48/9 8/43/9
f 18/49/10 40/50/10 20/45/10
f 16/25/11 38/51/11 18/49/11
f 22/34/12 24/52/12 21/53/12
f 26/35/13 21/54/13 25/55/13
f 26/35/14 27/56/14 28/48/14
f 30/44/15 27/57/15 29/58/15
f 32/39/16 29/59/16 31/60/16
f 32/39/17 33/61/17 34/37/17
f 34/37/18 35/62/18 36/24/18
f 36/24/19 37/63/19 38/51/19
f 40/50/20 37/64/20 39/65/20
f 23/46/21 39/66/21 24/67/21
f 2/68/22 22/34/22 4/69/22
f 50/70/23 1/71/23 19/72/23
f 49/73/24 19/72/24 17/74/24
f 48/75/25 17/74/25 15/76/25
f 47/77/26 15/76/26 13/78/26
f 46/79/27 13/78/27 11/80/27
f 45/81/28 11/80/28 9/82/28
f 44/83/29 9/82/29 7/84/29
f 43/85/30 7/84/30 5/86/30
f 42/87/31 5/86/31 3/88/31
f 41/89/32 3/88/32 1/90/32
f 52/91/32 62/92/32 53/93/32
f 51/14/31 63/2/31 62/92/31
f 54/13/30 64/8/30 63/2/30
f 55/21/29 65/16/29 64/8/29
f 56/94/28 66/27/28 65/16/28
f 57/95/27 67/28/27 66/27/27
f 58/10/26 68/96/26 67/28/26
f 59/97/25 69/98/25 68/96/25
f 60/18/24 70/99/24 69/98/24
f 61/100/23 53/5/23 70/99/23
f 12/101/2 56/94/2 10/20/2
f 2/102/2 61/100/2 20/17/2
f 50/4/1 69/98/1 70/99/1
f 41/103/1 62/92/1 42/1/1
f 8/22/2 54/13/2 6/104/2
f 49/105/1 68/96/1 69/98/1
f 18/19/2 59/97/2 16/9/2
f 2/106/2 51/14/2 52/91/2
f 48/107/1 67/28/1 68/96/1
f 12/101/2 58/10/2 57/95/2
f 42/1/1 62/92/1 63/2/1
f 50/4/1 70/99/1 53/5/1
f 44/7/1 43/3/1 63/2/1
f 16/9/2 59/97/2 58/10/2
f 4/12/2 6/104/2 54/13/2
f 45/15/1 44/7/1 64/8/1
f 20/17/2 61/100/2 60/18/2
f 10/20/2 56/94/2 55/21/2
f 14/23/3 34/37/3 36/24/3
f 46/26/1 45/15/1 65/16/1
f 46/26/1 66/27/1 67/28/1
f 19/108/1 1/109/1 3/30/1
f 3/30/1 5/110/1 7/31/1
f 7/31/1 9/111/1 15/32/1
f 9/111/1 11/112/1 15/32/1
f 11/112/1 13/113/1 15/32/1
f 15/32/1 17/114/1 19/108/1
f 19/108/1 3/30/1 15/32/1
f 6/33/4 4/69/4 22/34/4
f 12/36/5 32/39/5 34/37/5
f 10/38/6 30/44/6 32/39/6
f 25/42/2 21/115/2 37/40/2
f 21/115/2 24/116/2 37/40/2
f 24/116/2 39/117/2 37/40/2
f 37/40/2 35/118/2 33/119/2
f 33/119/2 31/120/2 29/41/2
f 29/41/2 27/121/2 25/42/2
f 37/40/2 33/119/2 29/41/2
f 8/43/7 28/48/7 30/44/7
f 20/45/8 40/50/8 23/46/8
f 6/33/9 26/35/9 28/48/9
f 18/49/10 38/51/10 40/50/10
f 16/25/11 36/24/11 38/51/11
f 22/34/12 23/122/12 24/52/12
f 26/35/13 22/34/13 21/54/13
f 26/35/14 25/123/14 27/56/14
f 30/44/15 28/48/15 27/57/15
f 32/39/16 30/44/16 29/59/16
f 32/39/17 31/124/17 33/61/17
f 34/37/18 33/125/18 35/62/18
f 36/24/19 35/126/19 37/63/19
f 40/50/20 38/51/20 37/64/20
f 23/46/21 40/50/21 39/66/21
f 2/68/22 23/122/22 22/34/22
f 50/70/23 41/127/23 1/71/23
f 49/73/24 50/70/24 19/72/24
f 48/75/25 49/73/25 17/74/25
f 47/77/26 48/75/26 15/76/26
f 46/79/27 47/77/27 13/78/27
f 45/81/28 46/79/28 11/80/28
f 44/83/29 45/81/29 9/82/29
f 43/85/30 44/83/30 7/84/30
f 42/87/31 43/85/31 5/86/31
f 41/89/32 42/87/32 3/88/32
f 52/91/32 51/14/32 62/92/32
f 51/14/31 54/13/31 63/2/31
f 54/13/30 55/21/30 64/8/30
f 55/21/29 56/94/29 65/16/29
f 56/94/28 57/95/28 66/27/28
f 57/95/27 58/10/27 67/28/27
f 58/10/26 59/97/26 68/96/26
f 59/97/25 60/18/25 69/98/25
f 60/18/24 61/100/24 70/99/24
f 61/100/23 52/128/23 53/5/23
f 12/101/2 57/95/2 56/94/2
f 2/102/2 52/128/2 61/100/2
f 50/4/1 49/105/1 69/98/1
f 41/103/1 53/93/1 62/92/1
f 8/22/2 55/21/2 54/13/2
f 49/105/1 48/107/1 68/96/1
f 18/19/2 60/18/2 59/97/2
f 2/106/2 4/12/2 51/14/2
f 48/107/1 47/29/1 67/28/1
f 12/101/2 14/11/2 58/10/2
